<?xml version="1.0" encoding="utf-8"?>
<!-- Generator: Adobe Illustrator 22.0.1, SVG Export Plug-In . SVG Version: 6.00 Build 0)  -->
<svg version="1.1" id="Layer_1" xmlns="http://www.w3.org/2000/svg" xmlns:xlink="http://www.w3.org/1999/xlink" x="0px" y="0px"
	 viewBox="0 0 95 102.6" style="enable-background:new 0 0 95 102.6;" xml:space="preserve">
<style type="text/css">
	.st0{fill:#3B3A3C;}
</style>
<path class="st0" d="M95,0.6c0-0.6-0.1-0.7-0.7-0.7c-21.7,0-43.4,0-65.1,0c-0.6,0-0.7,0.2-0.7,0.8c0,19.3,0,38.6,0,57.9
	c0,0.4-0.1,0.7-0.4,1.1c-5.7,5.7-11.3,11.3-17,17c-0.1,0.1-0.2,0.3-0.4,0.3c0-0.2,0-0.4,0-0.7c0-25.2,0-50.3,0-75.5
	c0-0.5-0.1-0.7-0.6-0.7c-3.1,0-6.1,0-9.2,0C0.2,0,0.1,0.2,0.1,0.8c0,33.6,0,67.2,0,100.9c0,0.2,0,0.4,0,0.8c0.3-0.3,0.4-0.5,0.6-0.6
	C12.3,90.2,23.9,78.6,35.5,67c0.4-0.4,0.8-0.6,1.4-0.6c19.1,0,38.3,0,57.4,0c0.6,0,0.8-0.1,0.8-0.7C95,44,95,22.3,95,0.6z M39,48
	c0-12.3-0.1-24.6-0.1-36.9c0-0.6,0.2-0.7,0.7-0.7c12.3,0,24.6-0.1,36.9-0.1c0.2,0,0.4,0,0.5,0C64.3,23,51.7,35.8,39,48.5
	C39,48.4,39,48.2,39,48z M83.8,55.9c-12.1,0-24.3,0-36.4,0c-0.2,0-0.4,0-0.5,0c12.5-12.5,25.1-25.1,37.6-37.6c0,0,0,0.2,0,0.4
	c0,12.2,0,24.3,0,36.5C84.5,55.8,84.3,55.9,83.8,55.9z"/>
</svg>
